ffmpeg version 4.2.7-0ubuntu0.1 Copyright (c) 2000-2022 the FFmpeg developers
  built with gcc 9 (Ubuntu 9.4.0-1ubuntu1~20.04.1)
  configuration: --prefix=/usr --extra-version=0ubuntu0.1 --toolchain=hardened --libdir=/usr/lib/x86_64-linux-gnu --incdir=/usr/include/x86_64-linux-gnu --arch=amd64 --enable-gpl --disable-stripping --enable-avresample --disable-filter=resample --enable-avisynth --enable-gnutls --enable-ladspa --enable-libaom --enable-libass --enable-libbluray --enable-libbs2b --enable-libcaca --enable-libcdio --enable-libcodec2 --enable-libflite --enable-libfontconfig --enable-libfreetype --enable-libfribidi --enable-libgme --enable-libgsm --enable-libjack --enable-libmp3lame --enable-libmysofa --enable-libopenjpeg --enable-libopenmpt --enable-libopus --enable-libpulse --enable-librsvg --enable-librubberband --enable-libshine --enable-libsnappy --enable-libsoxr --enable-libspeex --enable-libssh --enable-libtheora --enable-libtwolame --enable-libvidstab --enable-libvorbis --enable-libvpx --enable-libwavpack --enable-libwebp --enable-libx265 --enable-libxml2 --enable-libxvid --enable-libzmq --enable-libzvbi --enable-lv2 --enable-omx --enable-openal --enable-opencl --enable-opengl --enable-sdl2 --enable-libdc1394 --enable-libdrm --enable-libiec61883 --enable-nvenc --enable-chromaprint --enable-frei0r --enable-libx264 --enable-shared
  libavutil      56. 31.100 / 56. 31.100
  libavcodec     58. 54.100 / 58. 54.100
  libavformat    58. 29.100 / 58. 29.100
  libavdevice    58.  8.100 / 58.  8.100
  libavfilter     7. 57.100 /  7. 57.100
  libavresample   4.  0.  0 /  4.  0.  0
  libswscale      5.  5.100 /  5.  5.100
  libswresample   3.  5.100 /  3.  5.100
  libpostproc    55.  5.100 / 55.  5.100
Routing option strict to both codec and muxer layer
[h264 @ 0x56309ff41040] Reinit context to 720x1280, pix_fmt: yuv420p
Input #0, mov,mp4,m4a,3gp,3g2,mj2, from '/var/www/html/project/media/video/original/telegram-cloud-document-4-5818845048652962505.mp4':
  Metadata:
    major_brand     : isom
    minor_version   : 512
    compatible_brands: isomiso2avc1mp41
    creation_time   : 2025-08-10T14:59:27.000000Z
  Duration: 00:00:18.75, start: 0.000000, bitrate: 3521 kb/s
    Stream #0:0(eng): Audio: aac (LC) (mp4a / 0x6134706D), 48000 Hz, stereo, fltp, 256 kb/s (default)
    Metadata:
      creation_time   : 2025-08-10T14:59:05.000000Z
      handler_name    : SoundHandle
    Stream #0:1(eng): Video: h264 (High), 1 reference frame (avc1 / 0x31637661), yuv420p(tv, bt470bg/bt470bg/smpte170m, left), 720x1280, 3258 kb/s, 29.75 fps, 240 tbr, 90k tbn, 180k tbc (default)
    Metadata:
      creation_time   : 2025-08-10T14:59:06.000000Z
      handler_name    : VideoHandle
Input #1, png_pipe, from '/var/www/html/project/static/images/templates/logo_vertical.png':
  Duration: N/A, bitrate: N/A
    Stream #1:0: Video: png, 1 reference frame, rgba(pc), 1920x1080 [SAR 2835:2835 DAR 16:9], 25 tbr, 25 tbn, 25 tbc
[Parsed_scale_1 @ 0x56309ff63ec0] w:1280 h:720 flags:'bilinear' interl:0
[Parsed_scale_4 @ 0x56309ff5e480] w:-1 h:720 flags:'bilinear' interl:0
[Parsed_scale_6 @ 0x56309ff8cdc0] w:1280 h:720 flags:'bilinear' interl:0
Stream mapping:
  Stream #0:1 (h264) -> split (graph 0)
  Stream #1:0 (png) -> scale (graph 0)
  overlay (graph 0) -> Stream #0:0 (libx264)
  Stream #0:0 -> #0:1 (aac (native) -> aac (native))
Press [q] to stop, [?] for help
[graph_1_in_0_0 @ 0x5630a032c900] tb:1/48000 samplefmt:fltp samplerate:48000 chlayout:0x3
[h264 @ 0x56309ffefe80] Reinit context to 720x1280, pix_fmt: yuv420p
[Parsed_scale_1 @ 0x5630a0937ac0] w:1280 h:720 flags:'bilinear' interl:0
[Parsed_scale_4 @ 0x5630a093aa80] w:-1 h:720 flags:'bilinear' interl:0
[Parsed_scale_6 @ 0x5630a093c3c0] w:1280 h:720 flags:'bilinear' interl:0
[graph 0 input from stream 0:1 @ 0x5630a093f6c0] w:720 h:1280 pixfmt:yuv420p tb:1/90000 fr:50220000/1687873 sar:0/1 sws_param:flags=2
[graph 0 input from stream 1:0 @ 0x5630a0940740] w:1920 h:1080 pixfmt:rgba tb:1/25 fr:25/1 sar:2835/2835 sws_param:flags=2
[Parsed_scale_1 @ 0x5630a0937ac0] w:720 h:1280 fmt:yuv420p sar:0/1 -> w:1280 h:720 fmt:yuv420p sar:0/1 flags:0x2
[Parsed_boxblur_2 @ 0x5630a0938440] luma_radius:36 luma_power:1 chroma_radius:18 chroma_power:1 alpha_radius:36 alpha_power:1 w:1280 chroma_w:640 h:720 chroma_h:360
[Parsed_setsar_3 @ 0x5630a0939cc0] w:1280 h:720 sar:0/1 dar:16/9 -> sar:1/1 dar:16/9
[Parsed_scale_4 @ 0x5630a093aa80] w:720 h:1280 fmt:yuv420p sar:0/1 -> w:405 h:720 fmt:yuva420p sar:0/1 flags:0x2
[Parsed_setsar_5 @ 0x5630a093b700] w:405 h:720 sar:0/1 dar:9/16 -> sar:1/1 dar:9/16
[Parsed_overlay_8 @ 0x5630a093da80] main w:1280 h:720 fmt:yuv420p overlay w:405 h:720 fmt:yuva420p
[Parsed_overlay_8 @ 0x5630a093da80] [framesync @ 0x5630a093dba8] Selected 1/90000 time base
[Parsed_overlay_8 @ 0x5630a093da80] [framesync @ 0x5630a093dba8] Sync level 2
[Parsed_scale_6 @ 0x5630a093c3c0] w:1920 h:1080 fmt:rgba sar:2835/2835 -> w:1280 h:720 fmt:yuva420p sar:1/1 flags:0x2
[Parsed_setsar_7 @ 0x5630a093cec0] w:1280 h:720 sar:1/1 dar:16/9 -> sar:1/1 dar:16/9
[Parsed_overlay_9 @ 0x5630a093e940] main w:1280 h:720 fmt:yuv420p overlay w:1280 h:720 fmt:yuva420p
[Parsed_overlay_9 @ 0x5630a093e940] [framesync @ 0x5630a093eaa8] Selected 1/90000 time base
[Parsed_overlay_9 @ 0x5630a093e940] [framesync @ 0x5630a093eaa8] Sync level 2
[libx264 @ 0x56309ff89d00] using SAR=1/1
[libx264 @ 0x56309ff89d00] using cpu capabilities: MMX2 SSE2Fast SSSE3 SSE4.2 AVX FMA3 BMI2 AVX2
[libx264 @ 0x56309ff89d00] profile High, level 3.1
[libx264 @ 0x56309ff89d00] 264 - core 155 r2917 0a84d98 - H.264/MPEG-4 AVC codec - Copyleft 2003-2018 - http://www.videolan.org/x264.html - options: cabac=1 ref=1 deblock=1:0:0 analyse=0x3:0x113 me=hex subme=2 psy=1 psy_rd=1.00:0.00 mixed_ref=0 me_range=16 chroma_me=1 trellis=0 8x8dct=1 cqm=0 deadzone=21,11 fast_pskip=1 chroma_qp_offset=0 threads=22 lookahead_threads=5 sliced_threads=0 nr=0 decimate=1 interlaced=0 bluray_compat=0 constrained_intra=0 bframes=3 b_pyramid=2 b_adapt=1 b_bias=0 direct=1 weightb=1 open_gop=0 weightp=1 keyint=250 keyint_min=25 scenecut=40 intra_refresh=0 rc_lookahead=10 rc=crf mbtree=1 crf=18.0 qcomp=0.60 qpmin=0 qpmax=69 qpstep=4 ip_ratio=1.40 aq=1:1.00
Output #0, mp4, to '/var/www/html/project/media/video/watermarks/telegram-cloud-document-4-5818845048652962505.mp4':
  Metadata:
    major_brand     : isom
    minor_version   : 512
    compatible_brands: isomiso2avc1mp41
    encoder         : Lavf58.29.100
    Stream #0:0: Video: h264 (libx264), 1 reference frame (avc1 / 0x31637661), yuv420p, 1280x720 [SAR 1:1 DAR 16:9], q=-1--1, 29.75 fps, 50220000.00 tbn, 29.75 tbc (default)
    Metadata:
      encoder         : Lavc58.54.100 libx264
    Side data:
      cpb: bitrate max/min/avg: 0/0/0 buffer size: 0 vbv_delay: -1
    Stream #0:1(eng): Audio: aac (LC) (mp4a / 0x6134706D), 48000 Hz, stereo, fltp, delay 1024, 128 kb/s (default)
    Metadata:
      creation_time   : 2025-08-10T14:59:05.000000Z
      handler_name    : SoundHandle
      encoder         : Lavc58.54.100 aac
Past duration 0.624992 too large
    Last message repeated 7 times
Past duration 0.687492 too large
    Last message repeated 6 times
Past duration 0.749992 too large
    Last message repeated 7 times
Past duration 0.812492 too large
    Last message repeated 6 times
Past duration 0.874992 too large
    Last message repeated 7 times
Past duration 0.937492 too large
    Last message repeated 6 times
Past duration 0.999992 too large
    Last message repeated 7 times
Past duration 0.624992 too large
*** dropping frame 150 from stream 0 at ts 149
Past duration 0.624992 too large
    Last message repeated 5 times
Past duration 0.687492 too large
    Last message repeated 6 times
Past duration 0.749992 too large
    Last message repeated 7 times
Past duration 0.812492 too large
    Last message repeated 6 times
Past duration 0.874992 too large
    Last message repeated 7 times
Past duration 0.937492 too large
    Last message repeated 6 times
Past duration 0.999992 too large
    Last message repeated 7 times
Past duration 0.624992 too large
*** dropping frame 270 from stream 0 at ts 269
Past duration 0.624992 too large
    Last message repeated 5 times
Past duration 0.687492 too large
    Last message repeated 6 times
Past duration 0.749992 too large
    Last message repeated 7 times
Past duration 0.812492 too large
    Last message repeated 6 times
Past duration 0.874992 too large
    Last message repeated 7 times
Past duration 0.937492 too large
    Last message repeated 7 times
Past duration 0.999992 too large
    Last message repeated 6 times
Past duration 0.624992 too large
*** dropping frame 390 from stream 0 at ts 389
Past duration 0.624992 too large
    Last message repeated 5 times
Past duration 0.687492 too large
    Last message repeated 6 times
Past duration 0.749992 too large
    Last message repeated 7 times
Past duration 0.812492 too large
    Last message repeated 6 times
Past duration 0.874992 too large
    Last message repeated 7 times
Past duration 0.624992 too large
    Last message repeated 7 times
Past duration 0.687492 too large
    Last message repeated 6 times
Past duration 0.749992 too large
    Last message repeated 7 times
Past duration 0.812492 too large
    Last message repeated 7 times
Past duration 0.874992 too large
    Last message repeated 6 times
Past duration 0.937492 too large
    Last message repeated 7 times
Past duration 0.999992 too large
    Last message repeated 2 times
[Parsed_overlay_8 @ 0x5630a093da80] [framesync @ 0x5630a093dba8] Sync level 1
[Parsed_overlay_8 @ 0x5630a093da80] [framesync @ 0x5630a093dba8] Sync level 0
[Parsed_overlay_9 @ 0x5630a093e940] [framesync @ 0x5630a093eaa8] Sync level 0
No more output streams to write to, finishing.
frame=  555 fps= 30 q=-1.0 Lsize=    5975kB time=00:00:18.73 bitrate=2613.1kbits/s dup=0 drop=3 speed=1.01x    
[AVIOContext @ 0x56309ff3cd00] Statistics: 0 seeks, 36 writeouts
video:5644kB audio:309kB subtitle:0kB other streams:0kB global headers:0kB muxing overhead: 0.360522%
Input file #0 (/var/www/html/project/media/video/original/telegram-cloud-document-4-5818845048652962505.mp4):
  Input stream #0:0 (audio): 878 packets read (599423 bytes); 878 frames decoded (899072 samples); 
  Input stream #0:1 (video): 558 packets read (7638927 bytes); 558 frames decoded; 
  Total: 1436 packets (8238350 bytes) demuxed
Input file #1 (/var/www/html/project/static/images/templates/logo_vertical.png):
  Input stream #1:0 (video): 1 packets read (93903 bytes); 1 frames decoded; 
  Total: 1 packets (93903 bytes) demuxed
Output file #0 (/var/www/html/project/media/video/watermarks/telegram-cloud-document-4-5818845048652962505.mp4):
  Output stream #0:0 (video): 555 frames encoded; 555 packets muxed (5779416 bytes); 
  Output stream #0:1 (audio): 878 frames encoded (899072 samples); 879 packets muxed (316745 bytes); 
  Total: 1434 packets (6096161 bytes) muxed
[AVIOContext @ 0x56309ff895c0] Statistics: 2 seeks, 27 writeouts
[libx264 @ 0x56309ff89d00] frame I:3     Avg QP:15.54  size: 82829
[libx264 @ 0x56309ff89d00] frame P:140   Avg QP:17.80  size: 25592
[libx264 @ 0x56309ff89d00] frame B:412   Avg QP:19.71  size:  4727
[libx264 @ 0x56309ff89d00] consecutive B-frames:  0.9%  0.4%  0.0% 98.7%
[libx264 @ 0x56309ff89d00] mb I  I16..4: 24.9% 41.4% 33.7%
[libx264 @ 0x56309ff89d00] mb P  I16..4: 12.4% 13.2%  1.7%  P16..4: 29.4% 12.7%  6.5%  0.0%  0.0%    skip:24.1%
[libx264 @ 0x56309ff89d00] mb B  I16..4:  1.0%  0.3%  0.0%  B16..8: 13.2%  4.8%  0.6%  direct: 8.9%  skip:71.1%  L0:38.9% L1:46.5% BI:14.6%
[libx264 @ 0x56309ff89d00] 8x8 transform intra:45.1% inter:30.0%
[libx264 @ 0x56309ff89d00] coded y,uvDC,uvAC intra: 32.0% 44.0% 9.0% inter: 8.9% 11.3% 0.5%
[libx264 @ 0x56309ff89d00] i16 v,h,dc,p: 25% 36%  9% 30%
[libx264 @ 0x56309ff89d00] i8 v,h,dc,ddl,ddr,vr,hd,vl,hu: 12% 44% 15%  3%  5%  3%  9%  3%  4%
[libx264 @ 0x56309ff89d00] i4 v,h,dc,ddl,ddr,vr,hd,vl,hu: 22% 24% 16%  5%  9%  5% 10%  4%  6%
[libx264 @ 0x56309ff89d00] i8c dc,h,v,p: 52% 27% 11% 10%
[libx264 @ 0x56309ff89d00] Weighted P-Frames: Y:0.7% UV:0.0%
[libx264 @ 0x56309ff89d00] kb/s:2460.64
[aac @ 0x56309ff60e40] Qavg: 842.822
[AVIOContext @ 0x56309ff45d00] Statistics: 8305836 bytes read, 2 seeks
[AVIOContext @ 0x56309ff43a00] Statistics: 93903 bytes read, 0 seeks
